<svg id="bolsa-de-dinero" xmlns="http://www.w3.org/2000/svg" width="64.078" height="64.078" viewBox="0 0 64.078 64.078">
  <g id="Grupo_71" data-name="Grupo 71">
    <g id="Grupo_70" data-name="Grupo 70">
      <path id="Trazado_271" data-name="Trazado 271" d="M281.338,193.347h-2.67a1.335,1.335,0,0,0,0,2.67H280a1.335,1.335,0,0,0,2.67,0v-.246a3.995,3.995,0,0,0-1.335-7.764,1.335,1.335,0,1,1,0-2.67h2.67a1.335,1.335,0,0,0,0-2.67h-1.335a1.335,1.335,0,0,0-2.67,0v.246a3.995,3.995,0,0,0,1.335,7.764,1.335,1.335,0,1,1,0,2.67Z" transform="translate(-242.624 -158.638)" fill="#fff"/>
      <path id="Trazado_272" data-name="Trazado 272" d="M58.6,46.982a3.98,3.98,0,0,0,.136-.759c0-4.614-3.482-10.577-4.4-12.065C54.3,24.12,52.513,16.8,45.179,14.3c.334-1.045.938-2.438,1.5-3.722,1.077-2.464,2.094-4.791,2.094-6.336A4.022,4.022,0,0,0,44.529,0a3.037,3.037,0,0,0-3.091,1.722l-.061-.07A4.325,4.325,0,0,0,37.744,0c-2.444,0-4.031,2.129-4.8,3.873A5.467,5.467,0,0,0,29.57,5.032a2.824,2.824,0,0,0-.915,2.118c0,1.387,1,2.989,2.052,4.684a24.868,24.868,0,0,1,1.426,2.511c-7.234,2.541-9,9.83-9.045,19.813a43.016,43.016,0,0,0-2.435,4.655,29.458,29.458,0,0,0-5.128.922,4,4,0,0,0-3.055-2.827L1.6,34.735A1.335,1.335,0,0,0,0,36.044V57.4a1.334,1.334,0,0,0,1.335,1.335H9.7a3.982,3.982,0,0,0,3.656-2.521c2.988,1.424,16.813,7.861,22.688,7.861,5.178,0,15.836-5.239,22.887-8.706,1.841-.9,3.362-1.653,4.349-2.086a1.336,1.336,0,0,0,.8-1.223C64.078,49.525,61.911,47.627,58.6,46.982Zm-45.6-5.957-1.986,13.9A1.34,1.34,0,0,1,9.7,56.068H2.67v-18.4l9.276,1.855A1.335,1.335,0,0,1,13.005,41.025ZM31.387,6.989a4.249,4.249,0,0,1,2.386-.446,1.3,1.3,0,0,0,1.37-.941c.236-.76,1.218-2.932,2.6-2.932a1.735,1.735,0,0,1,1.632.751,2.853,2.853,0,0,0,2.245,1.188,2.237,2.237,0,0,0,2.15-1.568,1.972,1.972,0,0,1,.132-.278,1.291,1.291,0,0,1,.627-.093A1.378,1.378,0,0,1,46.1,4.242c0,.987-1.036,3.36-1.87,5.267a40.581,40.581,0,0,0-1.644,4.156,24.09,24.09,0,0,0-7.844.013,21.484,21.484,0,0,0-1.771-3.253C32.277,9.306,31.324,7.775,31.387,6.989ZM25.544,35.264a1.339,1.339,0,0,0,.213-.722c0-13.675,3.391-18.522,12.957-18.522s12.957,4.847,12.957,18.522a1.34,1.34,0,0,0,.213.724c.042.065,4.185,6.546,4.185,10.957a1.367,1.367,0,0,1-.1.5c-2.639.033-7.943,1.457-10.65,2.235-.363-3.831-5.272-5.187-10.345-6.218a22.923,22.923,0,0,1-5.7-2.1A16,16,0,0,0,23.6,38.794,39.355,39.355,0,0,1,25.544,35.264ZM57.752,52.976c-6.414,3.154-17.151,8.432-21.709,8.432-4.856,0-17.607-5.685-22.11-7.875-.005,0-.011,0-.017,0l1.572-11a25.645,25.645,0,0,1,7.206-1.144,12.045,12.045,0,0,1,5.418,1.662,25.484,25.484,0,0,0,6.331,2.317c5.8,1.176,8.276,2.382,8.276,4.031a.79.79,0,0,1-.353.716c-.845.635-4.16,1.7-16.622-2a1.335,1.335,0,1,0-.759,2.56C31.133,52.5,35.835,53.4,39.167,53.4a8.014,8.014,0,0,0,4.795-1.156c.089-.066.154-.148.235-.219A1.279,1.279,0,0,0,44.446,52c2.361-.726,9.049-2.611,11.622-2.611,2.177,0,4.468.662,5.143,1.9C60.279,51.735,59.1,52.315,57.752,52.976Z" fill="#fff"/>
    </g>
  </g>
</svg>
