<svg xmlns="http://www.w3.org/2000/svg" width="90.42" height="79.07" viewBox="0 0 90.42 79.07">
  <g id="las-compras-en-linea" transform="translate(0 -32.134)">
    <path id="Trazado_299" data-name="Trazado 299" d="M160.514,421.651h-5.863V415.6H120.979v6.052h-5.863a2.649,2.649,0,1,0,0,5.3h45.4a2.649,2.649,0,0,0,0-5.3Z" transform="translate(-92.605 -315.746)" fill="#fff"/>
    <path id="Trazado_300" data-name="Trazado 300" d="M202.083,120.5a2.319,2.319,0,0,0-2.316,2.316v5.154H204.4v-5.154A2.319,2.319,0,0,0,202.083,120.5Z" transform="translate(-164.488 -72.76)" fill="#fff"/>
    <path id="Trazado_301" data-name="Trazado 301" d="M82.1,32.134H8.324A8.319,8.319,0,0,0,0,40.458V77.909H90.42V40.458A8.318,8.318,0,0,0,82.1,32.134ZM19.152,67.6H17.024a2.649,2.649,0,1,1,0-5.3h2.128a2.316,2.316,0,1,0,0-4.633,7.614,7.614,0,0,1,0-15.229H21.28a2.649,2.649,0,0,1,0,5.3H19.152a2.316,2.316,0,0,0,0,4.633,7.614,7.614,0,1,1,0,15.229ZM45.21,64.952a2.649,2.649,0,0,1-5.3,0V60.508H35.279v4.445a2.649,2.649,0,0,1-5.3,0v-14.9a7.614,7.614,0,0,1,15.229,0ZM60.627,67.6H52.492a2.649,2.649,0,0,1-2.649-2.649V45.091a2.649,2.649,0,1,1,5.3,0V62.3h5.486a2.649,2.649,0,1,1,0,5.3ZM74.814,52.372a2.649,2.649,0,0,1,0,5.3H71.788V62.3h3.026a2.649,2.649,0,0,1,0,5.3H69.139a2.649,2.649,0,0,1-2.649-2.649V45.091a2.649,2.649,0,0,1,2.649-2.649h5.675a2.649,2.649,0,0,1,0,5.3H71.788v4.633Z" transform="translate(0)" fill="#fff"/>
    <path id="Trazado_302" data-name="Trazado 302" d="M0,324.359a8.321,8.321,0,0,0,8.324,8.324H82.1a8.32,8.32,0,0,0,8.324-8.324v-3.026H0Z" transform="translate(0 -238.126)" fill="#fff"/>
  </g>
</svg>
