<?xml version="1.0" encoding="iso-8859-1"?>
<!-- Generator: Adobe Illustrator 19.0.0, SVG Export Plug-In . SVG Version: 6.00 Build 0)  -->

<svg version="1.1" id="Capa_1" xmlns="http://www.w3.org/2000/svg" xmlns:xlink="http://www.w3.org/1999/xlink" x="0px" y="0px"
	 viewBox="0 0 512.001 512.001" style="enable-background:new 0 0 512.001 512.001;" xml:space="preserve" fill="white">
<g>
	<g>
		<path d="M31.254,237.072v54.958c16.167-1.749,26.129-6.146,37.258-11.062c15.636-6.907,33.358-14.736,67.054-14.736
			s51.417,7.829,67.054,14.736c14.414,6.369,26.863,11.867,53.388,11.867c26.523,0,38.972-5.499,53.385-11.867
			c15.635-6.907,33.356-14.736,67.051-14.736c33.693,0,51.414,7.829,67.05,14.736c11.127,4.916,21.089,9.312,37.253,11.062v-54.958
			H31.254z"/>
	</g>
</g>
<g>
	<g>
		<path d="M429.826,308.576c-14.412-6.369-26.861-11.867-53.383-11.867c-26.523,0-38.972,5.499-53.385,11.867
			c-15.635,6.907-33.356,14.736-67.051,14.736c-33.696,0-51.417-7.829-67.054-14.736c-14.414-6.369-26.863-11.867-53.388-11.867
			s-38.974,5.499-53.388,11.867c-12.928,5.711-27.292,12.047-50.924,14.073v29.822h449.492v-29.822
			C457.117,320.623,442.754,314.286,429.826,308.576z"/>
	</g>
</g>
<g>
	<g>
		<path d="M333.393,43.228H178.607c-93.351,0-170.191,71.991-177.949,163.368h510.685
			C503.585,115.219,426.744,43.228,333.393,43.228z M153.343,180.185c-8.542,0-14.868-6.982-15.238-15.238
			c-0.369-8.229,7.268-15.238,15.238-15.238c8.542,0,14.868,6.982,15.238,15.238C168.95,173.177,161.314,180.185,153.343,180.185z
			 M204.672,130.592c-8.542,0-14.868-6.982-15.238-15.238c-0.369-8.23,7.268-15.238,15.238-15.238
			c8.542,0,14.868,6.982,15.238,15.238C220.279,123.583,212.643,130.592,204.672,130.592z M256,180.185
			c-8.542,0-14.868-6.982-15.238-15.238c-0.369-8.229,7.268-15.238,15.238-15.238c8.542,0,14.868,6.982,15.238,15.238
			C271.607,173.177,263.971,180.185,256,180.185z M307.328,130.592c-8.542,0-14.868-6.982-15.238-15.238
			c-0.368-8.23,7.268-15.238,15.238-15.238c8.542,0,14.868,6.982,15.238,15.238C322.935,123.583,315.299,130.592,307.328,130.592z
			 M358.657,180.185c-8.542,0-14.868-6.982-15.238-15.238c-0.369-8.229,7.268-15.238,15.238-15.238
			c8.542,0,14.868,6.982,15.238,15.238C374.264,173.177,366.628,180.185,358.657,180.185z"/>
	</g>
</g>
<g>
	<g>
		<path d="M0,382.947v18.079c0,37.355,30.391,67.747,67.747,67.747h376.508c37.355,0,67.747-30.391,67.747-67.747v-18.079H0z"/>
	</g>
</g>
<g>
</g>
<g>
</g>
<g>
</g>
<g>
</g>
<g>
</g>
<g>
</g>
<g>
</g>
<g>
</g>
<g>
</g>
<g>
</g>
<g>
</g>
<g>
</g>
<g>
</g>
<g>
</g>
<g>
</g>
</svg>
