<svg xmlns="http://www.w3.org/2000/svg" width="81.959" height="81.918" viewBox="0 0 81.959 81.918">
  <g id="Capa_1" transform="translate(-328.63 -36.27)">
    <path id="Trazado_36" data-name="Trazado 36" d="M328.63,96.669a16.81,16.81,0,0,1,4.373-2.2c1.52-.567,3.061-1.077,4.611-1.62-.124-.651-.264-1.32-.377-1.993a32.882,32.882,0,0,1,.443-13.177A32.29,32.29,0,0,1,341,69.245c.188-.335.14-.583-.24-.681a1.356,1.356,0,0,1-1.018-1.251q-.264-1.536-.479-3.079a1.391,1.391,0,0,1,.131-.673,4.732,4.732,0,0,1,.589,1.821c.128.611.231,1.228.344,1.843l.1,0a1.62,1.62,0,0,0,.029-.395c-.16-.926-.336-1.85-.5-2.775a5.221,5.221,0,0,1-.04-.579c.243-.1.347-.047.4.188.271,1.141.558,2.277.839,3.414a.911.911,0,0,0,.06.138l.086-.007a3.5,3.5,0,0,0-.027-.408c-.17-.935-.352-1.869-.515-2.806a6.718,6.718,0,0,1-.045-.772c.322.019.387.242.446.424.114.357.2.725.279,1.091.159.69.311,1.381.469,2.071a1.616,1.616,0,0,0,.078.21l.1-.012a4.245,4.245,0,0,0-.052-.513c-.181-.855-.378-1.705-.553-2.562a7.715,7.715,0,0,1-.08-.81c.335-.052.38.155.429.349.226.9.448,1.8.673,2.7.03.123.07.244.121.423.394-.516.742-.981,1.1-1.441A32.846,32.846,0,0,1,360.16,53.9a.515.515,0,0,0,.4-.418c.056-.248.231-.517.171-.726-.05-.176-.361-.277-.553-.418a1.883,1.883,0,0,1-.969-1.635,1.624,1.624,0,0,1,2.16-1.5,14.388,14.388,0,0,1,1.373.567c.108.044.267.095.35.049a14.7,14.7,0,0,1,3.6-1.33,16.792,16.792,0,0,1,2.048-.4,11.592,11.592,0,0,1,5.01.76c.378.12.752.251,1.162.389.109-1.049.217-2.07.323-3.091.114-1.1.225-2.2.344-3.3a6,6,0,0,1,.866-2.418c.755-1.275,1.522-2.543,2.284-3.814.068-.113.141-.222.22-.345.748.228,1.49.441,2.222.692.095.033.18.267.169.4-.056.762-.141,1.521-.22,2.28-.165,1.584-.318,3.17-.5,4.752a18.4,18.4,0,0,1-1.032,4.245,2.772,2.772,0,0,1-.1.281.665.665,0,0,0,.125.821,1.61,1.61,0,0,1-.266,2.332c-.272.238-.588.426-.929.67.09.3.177.636.3.961.034.086.182.148.29.181a33.149,33.149,0,0,1,9.5,4.636,32.739,32.739,0,0,1,6.863,6.51c.341.435.669.881,1.006,1.319.011.013.039.013.111.038.472-3.185.943-6.361,1.428-9.634.155.2.277.324.37.471a6.382,6.382,0,0,1,.968,3.927,45.2,45.2,0,0,1-1.131,7.069,1.845,1.845,0,0,1-.255.435,32.637,32.637,0,0,1,4.175,11.705,33.251,33.251,0,0,1-.477,12.507c3.114,1.031,6.25,1.963,9.021,3.76a68.607,68.607,0,0,0-9.282-2.591c-.336.991-.638,1.951-.986,2.893a31.837,31.837,0,0,1-3.774,7.176,32.791,32.791,0,0,1-22.688,13.8,33.216,33.216,0,0,1-7.719.094,32.229,32.229,0,0,1-10.8-3.068,32.949,32.949,0,0,1-16.689-18.586c-.245-.686-.446-1.39-.657-2.088-.045-.149-.081-.232-.267-.189a74.358,74.358,0,0,0-7.9,2.138C329.427,96.352,329.03,96.516,328.63,96.669Zm72.012-2.741c-.154-.051-.205-.072-.258-.084a84.811,84.811,0,0,0-11.962-1.823,3.868,3.868,0,0,0-2.2.2,9.093,9.093,0,0,1-3.216.735,10.353,10.353,0,0,1-7.385-1.739.393.393,0,0,0-.321-.061A13.462,13.462,0,0,1,370,92.183a14.386,14.386,0,0,1-6.073-1.015.428.428,0,0,0-.351.055,9.664,9.664,0,0,1-4.045,1.668,3.365,3.365,0,0,1-2.081-.01.214.214,0,0,0-.162-.007,2.389,2.389,0,0,1-1.4.04,9.457,9.457,0,0,1-3.411-.9.68.68,0,0,0-.349-.063c-1,.063-2.011.108-3.012.21A95.523,95.523,0,0,0,338.965,93.8c-.264.056-.344.136-.259.415a34.887,34.887,0,0,0,1.919,5.013,32.12,32.12,0,0,0,54.5,5.625,30.847,30.847,0,0,0,4.056-6.98C399.715,96.593,400.15,95.271,400.642,93.927Zm-47.2-12.648.114-.026a14.266,14.266,0,0,1,5.671-.1,12.229,12.229,0,0,1,3.781,1.484c1.673.951,3.33,1.926,5,2.882a.915.915,0,0,0,.457.118,6.428,6.428,0,0,1,3.085.472,1.623,1.623,0,0,1,.991,1.134,7.467,7.467,0,0,1,.085,1.679,3.687,3.687,0,0,1-.746,1.83,1.6,1.6,0,0,0,1.2-.921,2.81,2.81,0,0,0,.182-1.465,3.1,3.1,0,0,0-2.828-3.02c-.743-.1-1.5-.1-2.251-.148-.091-.006-.181-.016-.272-.024l-.022-.119a3.4,3.4,0,0,1,.766-.219,10.16,10.16,0,0,1,1.489.043,3.127,3.127,0,0,0,1.777-.273c.859-.434,1.738-.83,2.58-1.295a14.592,14.592,0,0,1,8.5-1.8c.154.013.307.036.462.056l.421.055a11.185,11.185,0,0,0-7.742.418,4.807,4.807,0,0,1,1.516-1.081,13.547,13.547,0,0,1,3.505-1.09,13.131,13.131,0,0,1,5.666-.016c.646.157,1.266.425,1.888.639,0,0,0-.021-.007-.033-.053-.056-.111-.109-.168-.16a3.97,3.97,0,0,0-2.062-.911c-.677-.117-.677-.194-.8-.849a22.809,22.809,0,0,0-.579-2.347,5.684,5.684,0,0,0-1.645-2.375.482.482,0,0,1-.142-.5,6.111,6.111,0,0,0,.1-1.217,2.129,2.129,0,0,0-.647-1.405,11.2,11.2,0,0,1,.258,1.255,10.861,10.861,0,0,1-.028,1.273,19.871,19.871,0,0,0-13.243-4.641,21.02,21.02,0,0,0-13.267,4.494l-.1-.06c.1-.887.2-1.773.3-2.677a5.8,5.8,0,0,0-.732,2.828.956.956,0,0,1-.147.513,11.751,11.751,0,0,0-2.116,5.065c-.01.085-.152.2-.249.223a5.99,5.99,0,0,0-2.558,1.278,2.78,2.78,0,0,0-.2.215c.179-.075.26-.108.339-.145a8.4,8.4,0,0,1,3.6-.808,11.268,11.268,0,0,1,3.45.616c.781.249,1.547.548,2.32.825-.007.043-.015.084-.021.126A8.9,8.9,0,0,0,353.439,81.279ZM364.2,52.019c-.594.1-1.188.186-1.781.293-1.176.211-1.194.213-1.419,1.379a6,6,0,0,1-1.138,2.441,20.241,20.241,0,0,0-1.341,1.97,3.857,3.857,0,0,0-.26,3.662,8.348,8.348,0,0,0,3.909,4.007,7.731,7.731,0,0,0,1.262.389c-.055-.353-.094-.6-.137-.888.067.041.091.047.1.063a5.071,5.071,0,0,0,2.986,2.185,11.517,11.517,0,0,0,5.484.289,5.985,5.985,0,0,0,3.187-1.445,12.1,12.1,0,0,0,.9-1.047c.012.225.024.457.04.737a9.262,9.262,0,0,0,4.574-3.231,4.74,4.74,0,0,0-.95-6.542,2.887,2.887,0,0,1-.973-1.539c-.157-.621-.328-1.24-.523-1.85a.525.525,0,0,0-.338-.288c-.582-.132-1.172-.228-1.76-.335-.177-.032-.356-.056-.534-.083-.022.034-.044.069-.067.1a1.856,1.856,0,0,1,.264.185,10.5,10.5,0,0,1,2.392,3.434c.447,1.074.233,1.529-.856,1.928a4.578,4.578,0,0,1-5.429-2.262,3.848,3.848,0,0,1-.349-2.767,6.349,6.349,0,0,1,.515-1.049h-4.544a2.682,2.682,0,0,1,.694,2.478,4.3,4.3,0,0,1-3.252,3.64,3.928,3.928,0,0,1-3.12-.275c-.543-.3-.7-.6-.486-1.177a11.231,11.231,0,0,1,.859-1.856A10.845,10.845,0,0,1,364.2,52.019ZM360.1,54.758l-.053-.064a1.385,1.385,0,0,0-.214.041c-.686.245-1.38.476-2.058.745a31.957,31.957,0,0,0-9.1,5.5,33.169,33.169,0,0,0-6.366,7.389,1.834,1.834,0,0,0-.244,1.409c.359,2.055,1.081,4.011,1.635,6.012.057.208.162.226.34.171.708-.216,1.424-.411,2.127-.641a3.4,3.4,0,0,0,2.054-1.584c.653-1.228,1.3-2.463,1.856-3.74A21.67,21.67,0,0,1,357,61.165a.481.481,0,0,0,.135-.379,4.863,4.863,0,0,1,.8-3.508c.451-.624,1.013-1.166,1.521-1.749C359.679,55.278,359.888,55.015,360.1,54.758ZM395.235,75.93c.027-.1.062-.2.083-.31q.652-3.4,1.3-6.808a.383.383,0,0,0-.043-.251,1.145,1.145,0,0,1-.27-.973c.024-.086-.078-.223-.148-.316-.8-1.035-1.545-2.11-2.4-3.089A31.98,31.98,0,0,0,379.4,54.747a2.416,2.416,0,0,0-.319-.05c.128.175.2.3.294.4.409.451.817.9,1.236,1.342a5.056,5.056,0,0,1,1.449,4.34.389.389,0,0,0,.182.431,20.1,20.1,0,0,1,5.641,6.356,49.95,49.95,0,0,1,2.394,4.993C391.2,74.807,393.066,75.543,395.235,75.93Zm-52.774.369a59.326,59.326,0,0,0-1-6.367,31.1,31.1,0,0,0-3.929,13.541,31.515,31.515,0,0,0,.794,9.23,76.714,76.714,0,0,1,11.659-2.077.44.44,0,0,0-.032-.095.643.643,0,0,0-.07-.07,8.026,8.026,0,0,1-2.735-6.3,3.263,3.263,0,0,1,.536-1.92.276.276,0,0,0,.019-.109.3.3,0,0,0-.061.007c-.069.034-.137.07-.207.106a5.209,5.209,0,0,1-5.808-.458,2.588,2.588,0,0,1-1.126-2.536,5.667,5.667,0,0,1,1.2-2.7C341.876,76.313,342.053,76.115,342.461,76.3Zm55.118-6.765-.109,0c-.036.278-.094.556-.108.836q-.138,2.784-.26,5.57a.382.382,0,0,0,.068.266,5.453,5.453,0,0,1,1.387,2.342,2.764,2.764,0,0,1-.89,3.171,5.3,5.3,0,0,1-5.8.576l-.414-.217a7.758,7.758,0,0,1,.377.762,3.041,3.041,0,0,1,.181.773,8.055,8.055,0,0,1-2.4,6.6c-.123.123-.256.236-.4.367,1.975.287,3.926.522,5.858.864s3.867.791,5.852,1.2A32.325,32.325,0,0,0,397.579,69.534ZM374.822,49.983c.013-.053.028-.107.041-.16a10.226,10.226,0,0,0-3.491-.987c-2.605-.353-5.791.343-6.758,1.059A27.568,27.568,0,0,1,374.822,49.983Zm.881,5.439a3.057,3.057,0,0,0-.362-.5,1.98,1.98,0,0,0-2.308.069c-.191.165-.225.349-.074.506.055.057.309.009.406-.072a1.175,1.175,0,0,1,1.271-.171c.237.091.471.191.714.259C375.426,55.541,375.528,55.473,375.7,55.422Zm-11.788.16c.309-.111.6-.2.875-.315a1.2,1.2,0,0,1,1.332.177c.107.092.239.266.386.075a.34.34,0,0,0-.046-.5,2.007,2.007,0,0,0-2.319-.112A.607.607,0,0,0,363.915,55.583Z" transform="translate(0 0)" fill="#1e1e1e"/>
    <path id="Trazado_37" data-name="Trazado 37" d="M473.29,490.818c-.492,1.343-.927,2.666-1.456,3.95a30.8,30.8,0,0,1-4.056,6.98,32.209,32.209,0,0,1-7,6.742,32.147,32.147,0,0,1-47.508-12.367,34.9,34.9,0,0,1-1.919-5.013c-.085-.279,0-.36.259-.415a95.215,95.215,0,0,1,10.147-1.647c1-.1,2.008-.147,3.012-.21a.68.68,0,0,1,.349.063,9.451,9.451,0,0,0,3.411.9,2.388,2.388,0,0,0,1.4-.04.214.214,0,0,1,.162.007,3.365,3.365,0,0,0,2.081.01,9.658,9.658,0,0,0,4.045-1.668.429.429,0,0,1,.351-.055,14.39,14.39,0,0,0,6.073,1.015,13.459,13.459,0,0,0,5.305-1.029.4.4,0,0,1,.321.061,10.366,10.366,0,0,0,7.385,1.739,9.1,9.1,0,0,0,3.216-.735,3.856,3.856,0,0,1,2.2-.2,84.818,84.818,0,0,1,11.962,1.823C473.085,490.746,473.136,490.768,473.29,490.818Zm-25.118,13.955.01.011c-.028-.292-.23-.387-.479-.4a1.319,1.319,0,0,0-1.178.494,7.109,7.109,0,0,0-.765,1.3c-.185.4-.37.621-.738.628.013-.109.018-.215.041-.317.08-.355.175-.707.247-1.063a.858.858,0,0,0-.251-.938.924.924,0,0,0-.98,0,2.6,2.6,0,0,0-1.264,1.589,1.243,1.243,0,0,1-.21.44,2.09,2.09,0,0,1-.471.29,4.738,4.738,0,0,1,.026-.493,12.021,12.021,0,0,0,.207-1.3.593.593,0,0,0-.711-.635,1.617,1.617,0,0,0-.627.171,2.832,2.832,0,0,0-1.241,2.95.735.735,0,0,0,1.222.386,2.677,2.677,0,0,0,.309-.3c.213-.241.378-.537.785-.486.094.011.2-.115.306-.176.068-.04.137-.079.234-.134.015.191.016.335.039.475a.849.849,0,0,0,.53.779.833.833,0,0,0,.9-.281c.136-.145.264-.3.395-.446.058-.066.107-.164.18-.188.3-.095.6-.166.912-.25.063.414.01.972.584,1.17s.877-.316,1.251-.615a.712.712,0,0,1,.078.112c.233.617.613.728,1.088.264a8.685,8.685,0,0,0,.879-1.071c.2-.271.358-.572.536-.86a1.3,1.3,0,0,0-.329.339c-.254.3-.505.612-.782.9a.376.376,0,0,1-.346.077.422.422,0,0,1-.14-.33,1.328,1.328,0,0,1,.114-.479,16.748,16.748,0,0,1,2.5-4.176,1.63,1.63,0,0,1-1.4.109c-.2.472-.367.913-.566,1.342s-.432.862-.667,1.324Zm-1.013-3.407c.111.006.2.013.285.013q2.042,0,4.085,0a5.161,5.161,0,0,0,4.979-6.446,5.2,5.2,0,0,0-4.974-3.906q-2.01,0-4.018,0c-.117,0-.234.01-.356.016C447.158,494.5,447.158,497.927,447.158,501.366Zm-1.086,1.645V491.045h-2.924v4.572l-.092.034-6.283-5.817v11.139l2.9-.364v-3.452l.078-.04C441.843,499.064,443.93,501.012,446.073,503.01Zm-25.794-1.651v-1.071c0-.459,0-.459.469-.47a5.694,5.694,0,0,0,2.7-.59,4.3,4.3,0,0,0,2.084-4.927,4.478,4.478,0,0,0-4.2-3.277c-1.206-.011-2.412.008-3.618-.007-.3,0-.364.1-.364.38.01,3.2.006,6.4.006,9.6v.367Zm46.857.018c-1.915-3.712-3.8-7.363-5.706-11.06-1.833,3.7-3.639,7.357-5.471,11.06,1.058,0,2.041,0,3.023-.01.085,0,.2-.117.247-.208q.3-.576.553-1.168a.322.322,0,0,1,.341-.237c.952.01,1.9,0,2.856.012a.432.432,0,0,1,.315.2c.2.391.369.8.567,1.2a.377.377,0,0,0,.25.2C465.094,501.384,466.079,501.378,467.135,501.378ZM430,490.318c-1.829,3.7-3.634,7.35-5.451,11.023a1.117,1.117,0,0,0,.177.036c.929,0,1.858.007,2.788-.008a.415.415,0,0,0,.285-.2c.2-.381.386-.771.55-1.17a.343.343,0,0,1,.373-.242c.94.006,1.88,0,2.82.015a.479.479,0,0,1,.332.227c.2.38.363.782.553,1.168.043.085.14.2.213.2,1,.013,2.005.01,3.068.01Zm13.213,10.969c-.476-.028-.906-.035-1.331-.081a13.809,13.809,0,0,0-3.965-.086,4.635,4.635,0,0,0-3,1.524,2.57,2.57,0,0,0-.606,2.222,2.762,2.762,0,0,0,.293.6l.118,0a1.47,1.47,0,0,1,1.345-1.125c.283-.052.372-.2.413-.463a2.9,2.9,0,0,1,1.037-1.869,3.39,3.39,0,0,1,2.754-.584,1.251,1.251,0,0,1-.092.19c-.6.779-1.194,1.561-1.807,2.328a.562.562,0,0,1-.38.168,2.153,2.153,0,0,0-1.076.181c.118.249.224.471.329.7l.47-.194a.673.673,0,0,1-.034.142,12.473,12.473,0,0,1-1.958,2.415,2.04,2.04,0,0,1-1.834.545c-.115-.022-.231-.04-.391-.068a1.892,1.892,0,0,0,.424.911,4.1,4.1,0,0,1,.541.963,3.034,3.034,0,0,1,.079.783,5.571,5.571,0,0,0,.677-.238,4.156,4.156,0,0,0,1.737-1.821c.636-1.16,1.207-2.356,1.81-3.535a1.909,1.909,0,0,1,.211-.278l.064.039q-.173.782-.345,1.564l.115.047a3.562,3.562,0,0,0,.668-.5c.08-.092-.011-.332-.023-.5-.035-.517-.01-.536.42-.633a1.173,1.173,0,0,0,.425-.26c.021-.017-.038-.208-.078-.215a2.621,2.621,0,0,0-.5-.022c-.04,0-.079.039-.12.053-.154.053-.31.1-.465.157a1.846,1.846,0,0,1,.115-.472c.372-.675.737-1.357,1.159-2,.253-.386.474-.423.889-.215a10.974,10.974,0,0,1,1.015.656C442.576,502.008,442.871,501.673,443.212,501.287Z" transform="translate(-72.648 -396.891)" fill="#fff"/>
    <path id="Trazado_38" data-name="Trazado 38" d="M512.832,314.984a8.887,8.887,0,0,1,6.914-.2c.007-.042.015-.084.021-.126-.773-.277-1.538-.576-2.32-.825a11.262,11.262,0,0,0-3.449-.616,8.4,8.4,0,0,0-3.6.808c-.079.036-.16.069-.339.145a2.807,2.807,0,0,1,.2-.215,5.962,5.962,0,0,1,2.558-1.278c.1-.021.239-.138.249-.224a11.75,11.75,0,0,1,2.116-5.065.956.956,0,0,0,.147-.513,5.8,5.8,0,0,1,.732-2.828c-.1.9-.2,1.79-.3,2.677l.1.06a21.02,21.02,0,0,1,13.267-4.494,19.871,19.871,0,0,1,13.243,4.641,11.421,11.421,0,0,0,.028-1.273,10.949,10.949,0,0,0-.258-1.255,2.129,2.129,0,0,1,.647,1.405,5.926,5.926,0,0,1-.1,1.217.481.481,0,0,0,.142.5,5.661,5.661,0,0,1,1.645,2.375,23.219,23.219,0,0,1,.579,2.347c.128.656.129.732.8.849a3.97,3.97,0,0,1,2.062.911c.057.052.114.1.168.16a.046.046,0,0,1,.007.033c-.622-.214-1.24-.482-1.888-.639a13.131,13.131,0,0,0-5.666.016,13.591,13.591,0,0,0-3.505,1.09,4.807,4.807,0,0,0-1.516,1.081,11.185,11.185,0,0,1,7.742-.418c-.141-.018-.281-.038-.422-.055s-.307-.042-.461-.056a14.589,14.589,0,0,0-8.5,1.8c-.841.465-1.721.861-2.58,1.295a3.127,3.127,0,0,1-1.777.273,10.156,10.156,0,0,0-1.489-.043,3.376,3.376,0,0,0-.766.219l.022.119c.091.008.181.018.272.024.751.047,1.507.049,2.251.148a3.1,3.1,0,0,1,2.828,3.02,2.81,2.81,0,0,1-.182,1.465,1.6,1.6,0,0,1-1.2.921,3.68,3.68,0,0,0,.746-1.83,7.534,7.534,0,0,0-.085-1.679,1.62,1.62,0,0,0-.991-1.134,6.442,6.442,0,0,0-3.085-.472.927.927,0,0,1-.457-.118c-1.669-.956-3.327-1.931-5-2.882a12.258,12.258,0,0,0-3.781-1.484,14.265,14.265,0,0,0-5.671.1C512.908,314.967,512.871,314.975,512.832,314.984Z" transform="translate(-159.393 -233.704)" fill="#fff"/>
    <path id="Trazado_39" data-name="Trazado 39" d="M576,164.024a10.838,10.838,0,0,0-2.093,2.547,11.137,11.137,0,0,0-.859,1.856c-.213.575-.057.872.486,1.177a3.927,3.927,0,0,0,3.12.275,4.3,4.3,0,0,0,3.252-3.64,2.683,2.683,0,0,0-.694-2.478h4.544a6.351,6.351,0,0,0-.515,1.049,3.848,3.848,0,0,0,.349,2.767,4.577,4.577,0,0,0,5.429,2.262c1.089-.4,1.3-.854.856-1.928a10.522,10.522,0,0,0-2.392-3.434,1.858,1.858,0,0,0-.264-.185c.022-.034.044-.069.067-.1.179.028.357.051.534.083.588.107,1.177.2,1.76.335a.528.528,0,0,1,.338.288c.2.61.367,1.228.523,1.85a2.894,2.894,0,0,0,.973,1.539,4.74,4.74,0,0,1,.95,6.542,9.244,9.244,0,0,1-4.574,3.231c-.015-.279-.028-.511-.04-.737a12.453,12.453,0,0,1-.9,1.047,5.989,5.989,0,0,1-3.187,1.445,11.517,11.517,0,0,1-5.484-.289,5.063,5.063,0,0,1-2.986-2.185c-.01-.016-.034-.023-.1-.063.044.285.083.534.137.888a7.806,7.806,0,0,1-1.262-.389,8.343,8.343,0,0,1-3.909-4.007,3.854,3.854,0,0,1,.26-3.662,20.1,20.1,0,0,1,1.341-1.97,6.018,6.018,0,0,0,1.138-2.441c.226-1.166.243-1.167,1.419-1.379C574.816,164.209,575.411,164.121,576,164.024Zm5.4,7.888c-.135.284-.228.522-.357.739a3.845,3.845,0,0,1-.446.616,1.111,1.111,0,0,1-1.443.272,17.981,17.981,0,0,1-1.555-1.068.51.51,0,0,1-.192-.739,1.409,1.409,0,0,0,.094-.356,1.606,1.606,0,0,0-.963,1.434l.464-.424c1.965,3.356,6.074,4.26,8.832.027l.316.236a.978.978,0,0,0-1.116-1.165,3.431,3.431,0,0,1,.387.429.385.385,0,0,1,.038.33,2.816,2.816,0,0,1-1.262,1.134,1.806,1.806,0,0,1-2.491-.817C581.6,172.368,581.522,172.164,581.4,171.911Zm-.214-.938a3.113,3.113,0,0,0,2.161-.858c.276-.3.261-.418-.085-.641a4.443,4.443,0,0,0-3.828.059c-.293.2-.319.449-.043.715A2.5,2.5,0,0,0,581.189,170.974Zm1.68,4.854a2.741,2.741,0,0,1-2.652.149C581.26,176.964,582.375,176.916,582.869,175.827Z" transform="translate(-211.808 -112.005)" fill="#fff"/>
    <path id="Trazado_40" data-name="Trazado 40" d="M457.024,188.014c-.214.257-.424.519-.644.771-.508.583-1.071,1.125-1.521,1.749a4.857,4.857,0,0,0-.8,3.508.485.485,0,0,1-.135.379A21.67,21.67,0,0,0,447,203.254c-.551,1.275-1.2,2.511-1.856,3.74a3.4,3.4,0,0,1-2.054,1.584c-.7.231-1.419.425-2.127.641-.179.055-.283.036-.34-.171-.554-2-1.275-3.956-1.635-6.012a1.834,1.834,0,0,1,.244-1.409,33.141,33.141,0,0,1,6.366-7.389,31.956,31.956,0,0,1,9.1-5.5c.678-.268,1.37-.5,2.058-.745a1.386,1.386,0,0,1,.214-.041C456.989,187.972,457.006,187.994,457.024,188.014Z" transform="translate(-96.921 -133.256)" fill="#fff"/>
    <path id="Trazado_41" data-name="Trazado 41" d="M760.118,209.2c-2.169-.387-4.036-1.124-4.962-3.373a50.06,50.06,0,0,0-2.394-4.993,20.1,20.1,0,0,0-5.641-6.356.391.391,0,0,1-.182-.431,5.057,5.057,0,0,0-1.449-4.34c-.419-.441-.828-.892-1.236-1.342-.094-.1-.166-.223-.294-.4a2.64,2.64,0,0,1,.319.05,31.969,31.969,0,0,1,14.352,9.436c.859.979,1.608,2.054,2.4,3.089.072.092.172.231.148.316a1.146,1.146,0,0,0,.27.973.374.374,0,0,1,.043.251q-.643,3.405-1.3,6.808A3.05,3.05,0,0,1,760.118,209.2Z" transform="translate(-364.883 -133.274)" fill="#fff"/>
    <path id="Trazado_42" data-name="Trazado 42" d="M406.467,319.777c-.408-.185-.584.013-.759.251a5.667,5.667,0,0,0-1.2,2.7,2.592,2.592,0,0,0,1.126,2.536,5.206,5.206,0,0,0,5.808.458l.206-.106a.315.315,0,0,1,.061-.007.34.34,0,0,1-.019.109,3.263,3.263,0,0,0-.536,1.92,8.025,8.025,0,0,0,2.735,6.3.482.482,0,0,1,.07.07.378.378,0,0,1,.032.095,76.72,76.72,0,0,0-11.659,2.077,31.513,31.513,0,0,1-.794-9.23,31.081,31.081,0,0,1,3.929-13.541A59.578,59.578,0,0,1,406.467,319.777Z" transform="translate(-64.006 -243.478)" fill="#fff"/>
    <path id="Trazado_43" data-name="Trazado 43" d="M835.715,310.12a32.345,32.345,0,0,1,3.335,23.111c-1.985-.413-3.91-.861-5.852-1.2s-3.883-.577-5.858-.864c.145-.132.277-.244.4-.367a8.055,8.055,0,0,0,2.4-6.6,3.038,3.038,0,0,0-.181-.773,7.614,7.614,0,0,0-.377-.762l.414.217a5.305,5.305,0,0,0,5.8-.576,2.765,2.765,0,0,0,.89-3.171,5.473,5.473,0,0,0-1.387-2.342.385.385,0,0,1-.068-.266q.124-2.786.26-5.57c.015-.279.07-.558.108-.836A1.047,1.047,0,0,1,835.715,310.12Zm1.725,18.4a2.548,2.548,0,1,0-2.494,2.577A2.555,2.555,0,0,0,837.44,328.523Z" transform="translate(-438.135 -240.586)" fill="#fff"/>
    <path id="Trazado_44" data-name="Trazado 44" d="M635.1,140.181a27.594,27.594,0,0,0-10.208-.089c.967-.717,4.153-1.413,6.758-1.059a10.234,10.234,0,0,1,3.491.988C635.125,140.073,635.111,140.127,635.1,140.181Z" transform="translate(-260.275 -90.198)" fill="#fff"/>
    <path id="Trazado_45" data-name="Trazado 45" d="M695.653,187.926c-.175.051-.277.119-.353.1-.243-.068-.477-.169-.714-.259a1.175,1.175,0,0,0-1.27.171c-.1.08-.351.129-.406.072-.151-.159-.117-.341.074-.506a1.98,1.98,0,0,1,2.308-.069A3.035,3.035,0,0,1,695.653,187.926Z" transform="translate(-319.95 -132.504)" fill="#fff"/>
    <path id="Trazado_46" data-name="Trazado 46" d="M618.964,188.1a.606.606,0,0,1,.227-.674,2.005,2.005,0,0,1,2.319.112.34.34,0,0,1,.046.5c-.147.191-.279.017-.386-.075a1.2,1.2,0,0,0-1.332-.177C619.56,187.9,619.274,187.991,618.964,188.1Z" transform="translate(-255.049 -132.519)" fill="#fff"/>
    <path id="Trazado_54" data-name="Trazado 54" d="M630.726,226.987c.119.253.2.457.306.647a1.805,1.805,0,0,0,2.491.817,2.809,2.809,0,0,0,1.262-1.134.381.381,0,0,0-.038-.33,3.434,3.434,0,0,0-.387-.429.979.979,0,0,1,1.116,1.165l-.316-.236c-2.757,4.233-6.866,3.329-8.832-.027l-.464.424a1.606,1.606,0,0,1,.963-1.434,1.392,1.392,0,0,1-.094.356.51.51,0,0,0,.192.738,18.167,18.167,0,0,0,1.555,1.068,1.111,1.111,0,0,0,1.443-.272,3.921,3.921,0,0,0,.446-.616C630.5,227.508,630.591,227.27,630.726,226.987Z" transform="translate(-261.131 -167.08)" fill="#1e1e1e"/>
    <path id="Trazado_55" data-name="Trazado 55" d="M649.755,209.383a2.5,2.5,0,0,1-1.8-.724c-.276-.267-.249-.514.042-.715a4.443,4.443,0,0,1,3.828-.06c.345.222.361.339.085.641A3.115,3.115,0,0,1,649.755,209.383Z" transform="translate(-280.374 -150.414)" fill="#1e1e1e"/>
    <path id="Trazado_56" data-name="Trazado 56" d="M658.782,263.11c-.493,1.088-1.608,1.138-2.652.149A2.744,2.744,0,0,0,658.782,263.11Z" transform="translate(-287.721 -199.287)" fill="#1e1e1e"/>
    <path id="Trazado_58" data-name="Trazado 58" d="M730.263,539.758c0-.619.01-1.238,0-1.857-.006-.248.083-.318.324-.327a2.855,2.855,0,0,1,2.472.856,2.1,2.1,0,0,1-.854,3.292,4.385,4.385,0,0,1-1.732.189c-.189-.007-.205-.115-.205-.264,0-.63,0-1.26,0-1.89Z" transform="translate(-352.845 -440.41)" fill="#fff"/>
    <path id="Trazado_59" data-name="Trazado 59" d="M485.051,538.2c0-.408-.009-.817.007-1.224,0-.081.1-.232.147-.229a6.232,6.232,0,0,1,1.46.153,1.368,1.368,0,0,1,.843,1.558,1.47,1.47,0,0,1-1.235,1.211,6.428,6.428,0,0,1-1.025.01c-.069,0-.185-.141-.188-.22C485.042,539.042,485.051,538.623,485.051,538.2Z" transform="translate(-137.42 -439.69)" fill="#fff"/>
    <path id="Trazado_60" data-name="Trazado 60" d="M820.087,551.509H818.9c.2-.46.386-.883.6-1.379C819.714,550.627,819.894,551.052,820.087,551.509Z" transform="translate(-430.721 -451.445)" fill="#fff"/>
    <path id="Trazado_61" data-name="Trazado 61" d="M561.418,551.506H560.24l.585-1.366C561.034,550.62,561.213,551.031,561.418,551.506Z" transform="translate(-203.478 -451.454)" fill="#fff"/>
    <path id="Trazado_62" data-name="Trazado 62" d="M702.627,624.24a3.653,3.653,0,0,1-.7,2.089.817.817,0,0,1-.429.333c-.255.083-.47-.106-.521-.412a2.1,2.1,0,0,1,.363-1.442,2.782,2.782,0,0,1,.5-.606c.293-.267.515-.239.793.047C702.637,624.251,702.627,624.24,702.627,624.24Z" transform="translate(-327.104 -516.358)" fill="#fff"/>
    <path id="Trazado_63" data-name="Trazado 63" d="M653.923,625.242a3.153,3.153,0,0,1-.339.51,1.331,1.331,0,0,0-.363.86,1,1,0,0,1-.174.508.423.423,0,0,1-.729-.107.764.764,0,0,1-.066-.22,2.47,2.47,0,0,1,.969-1.964C653.63,624.6,653.852,624.727,653.923,625.242Z" transform="translate(-284.307 -516.973)" fill="#fff"/>
    <path id="Trazado_64" data-name="Trazado 64" d="M678.223,625.285a2.931,2.931,0,0,1-.321.479,1.119,1.119,0,0,0-.335.8,1.041,1.041,0,0,1-.022.328.547.547,0,0,1-.543.406c-.272-.007-.372-.2-.423-.431a2.408,2.408,0,0,1,1.026-2.061C677.98,624.638,678.158,624.78,678.223,625.285Z" transform="translate(-305.669 -516.991)" fill="#fff"/>
    <path id="Trazado_67" data-name="Trazado 67" d="M803,37" transform="translate(-416.752 -0.641)" fill="none"/>
    <path id="Trazado_68" data-name="Trazado 68" d="M592.5,172.5" transform="translate(-231.82 -119.683)" fill="none" stroke="#fff" stroke-miterlimit="10" stroke-width="1"/>
  </g>
</svg>
