<svg xmlns="http://www.w3.org/2000/svg" width="94.721" height="68.326" viewBox="0 0 94.721 68.326">
  <g id="scooter" transform="translate(0 -71.337)">
    <g id="Grupo_50" data-name="Grupo 50" transform="translate(67.094 112.036)">
      <g id="Grupo_49" data-name="Grupo 49" transform="translate(0 0)">
        <path id="Trazado_248" data-name="Trazado 248" d="M376.48,291.329a13.813,13.813,0,1,0,13.814,13.814A13.829,13.829,0,0,0,376.48,291.329Zm0,19.734a5.92,5.92,0,1,1,5.92-5.92A5.927,5.927,0,0,1,376.48,311.063Z" transform="translate(-362.666 -291.329)" fill="#fff"/>
      </g>
    </g>
    <g id="Grupo_52" data-name="Grupo 52" transform="translate(7.893 119.929)">
      <g id="Grupo_51" data-name="Grupo 51" transform="translate(0 0)">
        <path id="Trazado_249" data-name="Trazado 249" d="M69.457,335.31A1.966,1.966,0,0,0,67.6,334H56.48a5.92,5.92,0,1,1-5.92,5.92A5.927,5.927,0,0,1,56.48,334H45.367a1.966,1.966,0,0,0-1.859,1.314,13.534,13.534,0,0,0-.841,4.606,13.813,13.813,0,1,0,27.627,0A13.624,13.624,0,0,0,69.457,335.31Z" transform="translate(-42.667 -333.996)" fill="#fff"/>
      </g>
    </g>
    <g id="Grupo_54" data-name="Grupo 54" transform="translate(7.893 92.302)">
      <g id="Grupo_53" data-name="Grupo 53" transform="translate(0 0)">
        <path id="Trazado_250" data-name="Trazado 250" d="M76.214,184.662H48.587a5.92,5.92,0,1,0,0,11.84H76.214a5.92,5.92,0,1,0,0-11.84Z" transform="translate(-42.667 -184.662)" fill="#fff"/>
      </g>
    </g>
    <g id="Grupo_56" data-name="Grupo 56" transform="translate(49.336 96.249)">
      <g id="Grupo_55" data-name="Grupo 55" transform="translate(0 0)">
        <path id="Trazado_251" data-name="Trazado 251" d="M279.277,206.143A1.98,1.98,0,0,0,276.7,207.2l-9.867,23.68a1.974,1.974,0,0,0,1.062,2.581,1.914,1.914,0,0,0,.758.154,1.98,1.98,0,0,0,1.823-1.216l9.867-23.68A1.974,1.974,0,0,0,279.277,206.143Z" transform="translate(-266.677 -205.993)" fill="#fff"/>
      </g>
    </g>
    <g id="Grupo_58" data-name="Grupo 58" transform="translate(0 105.275)">
      <g id="Grupo_57" data-name="Grupo 57">
        <path id="Trazado_252" data-name="Trazado 252" d="M40.5,258.3a1.972,1.972,0,0,0-1.512-.7H13.813a9.707,9.707,0,0,1-6.3-2.352,1.978,1.978,0,0,0-2.707.158c-.375.395-.726.8-1.054,1.2A17.219,17.219,0,0,0,0,267.466a5.927,5.927,0,0,0,5.92,5.92H37.494a1.97,1.97,0,0,0,1.965-1.808c0-.063.537-6.283,1.48-11.666A1.984,1.984,0,0,0,40.5,258.3Z" transform="translate(0 -254.786)" fill="#fff"/>
      </g>
    </g>
    <g id="Grupo_60" data-name="Grupo 60" transform="translate(64.177 74.542)">
      <g id="Grupo_59" data-name="Grupo 59" transform="translate(0 0)">
        <path id="Trazado_253" data-name="Trazado 253" d="M349.6,89.893a3.352,3.352,0,0,0-2.526,4.349l.008.02a3.349,3.349,0,0,0,3.181,2.293h3.5l1.973-7.893Z" transform="translate(-346.899 -88.662)" fill="#fff"/>
      </g>
    </g>
    <g id="Grupo_62" data-name="Grupo 62" transform="translate(62.206 72.569)">
      <g id="Grupo_61" data-name="Grupo 61" transform="translate(0 0)">
        <path id="Trazado_254" data-name="Trazado 254" d="M348.481,78.609a1.975,1.975,0,0,0-1.815-.572l-6.141,1.227a5.34,5.34,0,0,0,1.054,10.573h3.5a1.975,1.975,0,0,0,1.914-1.5l1.973-7.893A1.97,1.97,0,0,0,348.481,78.609Zm-4.941,7.282h-1.962a1.389,1.389,0,0,1-1.318-.967,1.382,1.382,0,0,1,1.038-1.792l3.082-.616Z" transform="translate(-336.244 -77.998)" fill="#fff"/>
      </g>
    </g>
    <g id="Grupo_64" data-name="Grupo 64" transform="translate(52.53 71.337)">
      <g id="Grupo_63" data-name="Grupo 63" transform="translate(0 0)">
        <path id="Trazado_255" data-name="Trazado 255" d="M312.321,104.143c-4.266,0-5.971-4.44-6.082-4.724L295.811,75.087a6.185,6.185,0,0,0-11.552,4.393l1.969,5.912,5.4-3.24a1.973,1.973,0,1,1,2.033,3.382l-6.149,3.69,3.2,9.618a2.055,2.055,0,0,0,.328.608l3.536,4.424a5.837,5.837,0,0,1,.11,7.242,21.41,21.41,0,0,0-2.68,4.432,5.939,5.939,0,0,0,5.431,8.324h3.039a1.974,1.974,0,0,0,1.973-1.973,1.887,1.887,0,0,0-.363-1.074l8.616-5.742a1.944,1.944,0,0,0,1.559.9c3.978.122,10.972,0,13.008-1.977a2.744,2.744,0,0,0,.86-1.969C326.134,107.971,318.351,104.143,312.321,104.143Z" transform="translate(-283.943 -71.337)" fill="#fff"/>
      </g>
    </g>
    <g id="Grupo_66" data-name="Grupo 66" transform="translate(47.359 78.486)">
      <g id="Grupo_65" data-name="Grupo 65">
        <path id="Trazado_256" data-name="Trazado 256" d="M269.525,110.938a1.971,1.971,0,0,0-2.707-.675l-9.867,5.92a1.975,1.975,0,0,0,1.018,3.667,1.936,1.936,0,0,0,1.014-.284l9.867-5.92A1.977,1.977,0,0,0,269.525,110.938Z" transform="translate(-255.995 -109.98)" fill="#fff"/>
      </g>
    </g>
    <g id="Grupo_68" data-name="Grupo 68" transform="translate(35.52 119.929)">
      <g id="Grupo_67" data-name="Grupo 67" transform="translate(0 0)">
        <path id="Trazado_257" data-name="Trazado 257" d="M207.786,334H193.972a1.973,1.973,0,1,0,0,3.947h13.813a1.973,1.973,0,1,0,0-3.947Z" transform="translate(-191.999 -333.996)" fill="#fff"/>
      </g>
    </g>
  </g>
</svg>
