<svg id="_02-shop" data-name="02-shop" xmlns="http://www.w3.org/2000/svg" width="76" height="76" viewBox="0 0 76 76">
  <g id="Glyph" transform="translate(0 0)">
    <path id="Trazado_258" data-name="Trazado 258" d="M75.987,32H0v3.167A6.333,6.333,0,0,0,6.333,41.5h9.5a6.333,6.333,0,0,0,6.333-6.333A6.333,6.333,0,0,0,28.5,41.5h19a6.333,6.333,0,0,0,6.333-6.333A6.333,6.333,0,0,0,60.167,41.5h9.5A6.333,6.333,0,0,0,76,35.167V32Z" transform="translate(0 -6.667)" fill="#fff"/>
    <path id="Trazado_259" data-name="Trazado 259" d="M88.9,22.167,83.228,2.3A3.167,3.167,0,0,0,80.183,0h-14.5l4.433,22.167Z" transform="translate(-13.683 0)" fill="#fff"/>
    <path id="Trazado_260" data-name="Trazado 260" d="M24.209,0H9.7A3.167,3.167,0,0,0,6.66,2.3L.983,22.167H19.776Z" transform="translate(-0.205 0)" fill="#fff"/>
    <path id="Trazado_261" data-name="Trazado 261" d="M52.387,0H37.312L32.879,22.167H56.821Z" transform="translate(-6.85 0)" fill="#fff"/>
    <path id="Trazado_262" data-name="Trazado 262" d="M61,47.362a9.463,9.463,0,0,1-6.333-2.425,9.463,9.463,0,0,1-6.333,2.425h-19A9.463,9.463,0,0,1,23,44.937a9.463,9.463,0,0,1-6.333,2.425h-9.5A9.438,9.438,0,0,1,4,46.808V82.2a3.167,3.167,0,0,0,3.167,3.167H13.5v-28.5A3.167,3.167,0,0,1,16.667,53.7H32.5a3.167,3.167,0,0,1,3.167,3.167v28.5H70.5A3.167,3.167,0,0,0,73.667,82.2V46.808a9.438,9.438,0,0,1-3.167.554Zm3.167,19A3.167,3.167,0,0,1,61,69.529H45.167A3.167,3.167,0,0,1,42,66.362v-9.5A3.167,3.167,0,0,1,45.167,53.7H61a3.167,3.167,0,0,1,3.167,3.167Z" transform="translate(-0.833 -9.362)" fill="#fff"/>
  </g>
</svg>
